<svg width="348.01001586914066" height="86.74111497223586" viewBox="0 0 369.7073170731707 92.14914351309744" class="looka-1j8o68f" xmlns="http://www.w3.org/2000/svg" xmlns:xlink="http://www.w3.org/1999/xlink" ><defs id="SvgjsDefs7672"></defs><g id="SvgjsG7673" featurekey="UqkkrJ-0" transform="matrix(0.9214880605409089,0,0,0.9214880605409089,0,0)" fill="#ffffff"><g xmlns="http://www.w3.org/2000/svg"><path d="M18.097,22.218c0.693,2.759-0.427,5.502-2.626,6.156c-2.191,0.652-4.675-1.178-5.417-4.127   c-0.892-2.995,1.478-13.728,1.478-13.728S17.29,19.561,18.097,22.218z"></path><path d="M27.847,32.956c-0.911,2.538-3.361,4.022-5.549,3.134c-2.194-0.88-3.237-3.848-2.239-6.453   c0.935-2.694,8.533-9.238,8.533-9.238S28.637,30.378,27.847,32.956z"></path><path d="M33.248,45.991c-0.641,2.604-2.9,4.348-5.178,3.717c-2.272-0.628-3.631-3.466-2.909-6.156   c0.65-2.776,7.544-10.049,7.544-10.049S33.753,43.37,33.248,45.991z"></path><path d="M40.043,58.155c-0.323,2.635-2.337,4.66-4.672,4.331c-2.329-0.327-4.034-2.971-3.624-5.723   c0.313-2.836,6.376-10.787,6.376-10.787S40.216,55.519,40.043,58.155z"></path><path d="M8.262,39.868c2.434,1.706,5.239,1.179,6.32-0.987c1.073-2.169,0.091-5.155-2.224-6.862C10.035,30.422,0,27.798,0,27.798   S5.732,38.269,8.262,39.868z"></path><path d="M14.532,54.995c2.612,1.45,5.351,0.607,6.175-1.666c0.827-2.279-0.473-5.142-2.956-6.604   c-2.478-1.347-12.733-2.944-12.733-2.944S11.818,53.663,14.532,54.995z"></path><path d="M22.606,69.437c2.794,1.136,5.399-0.057,5.923-2.423c0.525-2.375-1.125-5.052-3.763-6.222   c-2.622-1.038-13.017-1.526-13.017-1.526S19.71,68.447,22.606,69.437z"></path><path d="M48.294,69.096c0.031,2.639-1.629,4.927-3.992,4.97c-2.342,0.03-4.406-2.345-4.378-5.11   c-0.096-2.854,4.933-11.467,4.933-11.467S48.068,66.499,48.294,69.096z"></path><path d="M32.708,82.821c2.942,0.75,5.357-0.846,5.502-3.26c0.16-2.438-1.854-4.852-4.643-5.651   c-2.747-0.65-13.156,0.148-13.156,0.148S29.645,82.279,32.708,82.821z"></path><path d="M72.775,99.921c-14.424-5.55-27.001-15.413-36.452-27.534C26.8,60.266,20.065,46.183,15.472,31.569   c-0.167-0.541,0.092-1.099,0.58-1.247l0,0c0.487-0.148,1.015,0.163,1.18,0.696l0,0c4.536,14.438,11.189,28.328,20.54,40.227   c9.285,11.903,21.573,21.529,35.674,26.958c0.515,0.203,0.789,0.754,0.611,1.231l0,0C73.877,99.912,73.304,100.13,72.775,99.921   L72.775,99.921z"></path></g><g xmlns="http://www.w3.org/2000/svg"><path d="M62.6,9.624c-0.882,1.857-2.75,2.904-4.303,2.284c-1.542-0.613-2.121-2.816-1.156-4.854C58.027,4.886,64.407,0,64.407,0   S63.331,7.775,62.6,9.624z"></path><path d="M63.407,19.978c-1.613,1.032-3.698,0.857-4.591-0.599c-0.922-1.459-0.188-3.644,1.53-4.685   c1.759-1.143,9.006-1.27,9.006-1.27S64.946,18.839,63.407,19.978z"></path><path d="M61.215,29.654c-1.422,1.271-3.508,1.442-4.626,0.153c-1.145-1.286-0.785-3.563,0.759-4.855   c1.529-1.418,8.676-2.614,8.676-2.614S62.539,28.276,61.215,29.654z"></path><path d="M60.661,39.531c-1.203,1.492-3.207,2.006-4.543,0.921c-1.323-1.079-1.373-3.383-0.06-4.914   c1.285-1.656,8.128-3.993,8.128-3.993S61.738,37.941,60.661,39.531z"></path><path d="M48.992,15.466c0.659,2.127,2.528,3.018,4.108,2.198c1.557-0.833,2.332-3.001,1.767-5.053   c-0.613-1.955-5.025-8.168-5.025-8.168S48.176,13.356,48.992,15.466z"></path><path d="M46.259,27.545c0.996,2.001,2.986,2.572,4.411,1.503c1.403-1.079,1.808-3.345,0.938-5.284   c-0.946-1.835-6.234-7.333-6.234-7.333S45.093,25.594,46.259,27.545z"></path><path d="M45.561,39.939c1.304,1.807,3.385,2.038,4.594,0.748c1.224-1.297,1.22-3.598,0.045-5.367   c-1.226-1.648-7.353-6.22-7.353-6.22S44.087,38.219,45.561,39.939z"></path><path d="M61.737,49.402c-0.937,1.675-2.85,2.505-4.33,1.644c-1.486-0.854-1.904-3.12-0.861-4.848   c0.997-1.845,7.358-5.294,7.358-5.294S62.548,47.648,61.737,49.402z"></path><path d="M46.902,52.242c1.583,1.562,3.658,1.462,4.657-0.006c0.993-1.473,0.621-3.744-0.828-5.292   c-1.479-1.424-8.275-4.908-8.275-4.908S45.181,50.792,46.902,52.242z"></path><path d="M64.979,78.329c-6.371-9.34-10.425-20.146-11.957-31.316c-1.539-11.178-0.151-22.721,3.834-33.261   c0.138-0.393,0.55-0.593,0.893-0.46l0,0c0.348,0.135,0.497,0.546,0.362,0.931l0,0c-8.123,20.736-4.498,45.102,7.961,63.33   c0.232,0.328,0.185,0.762-0.106,0.989l0,0C65.672,78.77,65.222,78.672,64.979,78.329L64.979,78.329z"></path></g></g><g id="SvgjsG7674" featurekey="0kuQ8p-0" transform="matrix(3.1616163094085916,0,0,3.1616163094085916,85.4384608034632,-4.394557308012988)" fill="#ffffff"><path d="M13.945 15.332 c-0.53711 2.207 -2.3926 3.8086 -4.5508 4.4238 c-0.68359 0.17578 -1.5332 0.24414 -2.5684 0.24414 l-6.0156 0 l1.4648 -6.3672 l-1.1133 0 l1.9043 -8.2031 c1.6895 0 6.8164 -0.32227 8.5449 0.3125 c1.4648 0.57617 2.1582 1.7871 1.7969 3.3691 c-0.27344 1.1816 -0.98633 2.0996 -1.9434 2.8125 c0.80078 0.40039 1.2695 1.0059 1.4258 1.709 l1.0742 0 c0.12695 0.54688 0.097656 1.0742 -0.019531 1.6992 z M8.9453 15.273399999999999 c0.3125 -1.3574 -1.0254 -1.0938 -1.9043 -1.0938 l-0.52734 2.2559 c1.084 0 2.1484 0.12695 2.4316 -1.1621 z M8.3594 10 c0.22461 -0.9082 -0.52734 -1.0156 -1.2402 -1.0156 l-0.37109 1.7676 c0.54688 0.048828 1.4648 -0.029297 1.6113 -0.75195 z M20.55665 13.6719 l-1.4648 6.3672 l-4.9414 0 l1.4648 -6.3672 l-0.99609 0 l1.9141 -8.2422 l4.9316 0 l-1.8945 8.2422 l0.98633 0 z M30.21496875 13.3594 l-1.4844 6.6797 l-4.9512 0 l1.5234 -6.6797 l-0.88867 0 l0.98633 -4.2773 l-3.9063 0 l0.85938 -3.7012 l12.676 0 l-0.83008 3.7012 l-3.8965 0 l-0.95703 4.2773 l0.86914 0 z M35.078121875 13.6719 l-0.99609 0 l1.9141 -8.2422 l10.459 0 l-0.83984 3.7012 l-5.5762 0 l-0.29297 1.25 l5.127 0 l-0.75195 3.291 l0.99609 0 l-0.087891 0.39063 l-5.1367 0 l-0.51758 2.2852 l5.5566 0 l-0.83984 3.6914 l-10.479 0 z M58.778984375 15.332 c-0.53711 2.207 -2.3926 3.8086 -4.5508 4.4238 c-0.68359 0.17578 -1.5332 0.24414 -2.5684 0.24414 l-6.0156 0 l1.4648 -6.3672 l-1.1133 0 l1.9043 -8.2031 c1.6895 0 6.8164 -0.32227 8.5449 0.3125 c1.4648 0.57617 2.1582 1.7871 1.7969 3.3691 c-0.27344 1.1816 -0.98633 2.0996 -1.9434 2.8125 c0.80078 0.40039 1.2695 1.0059 1.4258 1.709 l1.0742 0 c0.12695 0.54688 0.097656 1.0742 -0.019531 1.6992 z M53.779284375 15.273399999999999 c0.3125 -1.3574 -1.0254 -1.0938 -1.9043 -1.0938 l-0.52734 2.2559 c1.084 0 2.1484 0.12695 2.4316 -1.1621 z M53.193384375 10 c0.22461 -0.9082 -0.52734 -1.0156 -1.2402 -1.0156 l-0.37109 1.7676 c0.54688 0.048828 1.4648 -0.029297 1.6113 -0.75195 z M73.799234375 12.8418 c-0.078125 0.3125 -0.16602 0.625 -0.2832 0.94727 l1.0645 0 c-1.2402 3.877 -4.3945 6.6895 -8.7207 6.6895 c-4.4629 0 -6.2012 -2.8125 -5.6348 -6.6895 l-1.0352 0 c0.039063 -0.32227 0.087891 -0.63477 0.15625 -0.94727 c1.0352 -4.4629 4.2676 -7.6563 8.9648 -7.6563 c4.5996 0 6.4941 3.2227 5.4883 7.6563 z M69.511234375 13.789100000000001 l-1.0547 0 c0.097656 -0.32227 0.19531 -0.63477 0.26367 -0.9668 c1.2402 -5.3613 -3.0859 -5.2051 -4.2969 0.019531 c-0.068359 0.3418 -0.11719 0.6543 -0.16602 0.94727 l1.0547 0 c-0.50781 4.082 2.8223 3.9941 4.1992 0 z M85.0100625 13.3594 l2.5684 6.6797 l-5.5957 0 l-1.2012 -3.3789 c-0.9082 1.084 -1.9141 2.2559 -2.7441 3.3789 l-5.4785 0 l5.6934 -6.6797 l-0.87891 0 l0.60547 -0.70313 c-1.0156 -2.373 -1.7969 -4.8926 -2.7832 -7.2754 l5.6055 0 l1.1035 3.125 c0.80078 -1.0547 1.7188 -2.0508 2.5488 -3.125 l5.459 0 l-6.1035 7.1582 l0.3418 0.82031 l0.85938 0 z"></path></g><g id="SvgjsG7675" featurekey="Nh6iBa-0" transform="matrix(0.719829068436614,0,0,0.719829068436614,132.83387681988995,66.40528864825066)" fill="#ffffff"><path d="M11.12 11.12 q0.3 0 0.51 0.21 t0.21 0.51 l0 1.48 q0 0.28 -0.21 0.49 t-0.51 0.21 l-6.58 0 l0 5.12 q0 0.28 -0.2 0.49 t-0.5 0.21 l-1.52 0 q-0.28 0 -0.49 -0.21 t-0.21 -0.49 l0 -7.3 q0 -0.3 0.21 -0.51 t0.49 -0.21 l8.8 0 z M12.02 5 q0.28 0 0.49 0.21 t0.21 0.49 l0 1.46 q0 0.3 -0.21 0.51 t-0.49 0.21 l-9.7 0 q-0.28 0 -0.49 -0.21 t-0.21 -0.51 l0 -1.46 q0 -0.28 0.21 -0.49 t0.49 -0.21 l9.7 0 z M42.731750000000005 18.86 q0.14 0.32 -0.07 0.65 t-0.57 0.33 l-13.32 0 q-0.18 0 -0.34 -0.09 t-0.24 -0.23 q-0.22 -0.32 -0.06 -0.66 l0.62 -1.46 q0.08 -0.2 0.26 -0.32 t0.38 -0.12 l9.32 0 l-3.28 -7.84 l-2.68 6.4 q-0.08 0.2 -0.25 0.31 t-0.39 0.11 l-1.68 0 q-0.38 0 -0.6 -0.32 q-0.08 -0.14 -0.1 -0.32 t0.04 -0.34 l4.06 -9.52 q0.08 -0.2 0.25 -0.32 t0.39 -0.12 l1.92 0 q0.22 0 0.39 0.12 t0.25 0.32 z M68.7435 14.1 l3.02 4.62 q0.22 0.36 0.02 0.72 q-0.08 0.16 -0.25 0.26 t-0.35 0.1 l-1.82 0 q-0.18 0 -0.34 -0.09 t-0.24 -0.23 l-3.04 -4.82 l-3.56 0 l0 4.44 q0 0.28 -0.21 0.49 t-0.49 0.21 l-1.52 0 q-0.28 0 -0.49 -0.21 t-0.21 -0.49 l0 -6.58 q0 -0.28 0.21 -0.49 t0.49 -0.21 l6.16 0 q1.76 0 2.34 -1 q0.2 -0.32 0.2 -0.92 q0 -0.94 -0.62 -1.48 q-0.64 -0.58 -1.84 -0.58 l-6.24 0 q-0.28 0 -0.49 -0.21 t-0.21 -0.49 l0 -1.44 q0 -0.28 0.21 -0.49 t0.49 -0.21 l6.42 0 q2.34 0 3.74 1.32 q1.46 1.32 1.46 3.58 q0 1.46 -0.64 2.49 t-1.86 1.57 z M102.67525 5 q0.28 0 0.49 0.21 t0.21 0.49 l0 13.4 q0 0.28 -0.21 0.49 t-0.49 0.21 l-1.52 0 q-0.3 0 -0.5 -0.21 t-0.2 -0.49 l0 -9.04 l-3.7 4.76 q-0.22 0.26 -0.56 0.26 l0 0 q-0.16 0 -0.32 -0.07 t-0.24 -0.21 l-6.56 -8.68 q-0.12 -0.14 -0.14 -0.35 t0.08 -0.38 t0.26 -0.28 t0.36 -0.11 l1.76 0 q0.34 0 0.56 0.28 l4.24 5.6 l4.14 -5.6 q0.22 -0.28 0.58 -0.28 l1.76 0 z M91.15525000000001 14.7 q0.28 0 0.49 0.2 t0.21 0.5 l0 3.7 q0 0.28 -0.21 0.49 t-0.49 0.21 l-1.52 0 q-0.28 0 -0.49 -0.21 t-0.21 -0.49 l0 -3.7 q0 -0.3 0.21 -0.5 t0.49 -0.2 l1.52 0 z M149.81875000000002 11.12 q0.3 0 0.51 0.21 t0.21 0.51 l0 1.48 q0 0.28 -0.21 0.49 t-0.51 0.21 l-6.58 0 l0 5.12 q0 0.28 -0.2 0.49 t-0.5 0.21 l-1.52 0 q-0.28 0 -0.49 -0.21 t-0.21 -0.49 l0 -7.3 q0 -0.3 0.21 -0.51 t0.49 -0.21 l8.8 0 z M150.71875000000003 5 q0.28 0 0.49 0.21 t0.21 0.49 l0 1.46 q0 0.3 -0.21 0.51 t-0.49 0.21 l-9.7 0 q-0.28 0 -0.49 -0.21 t-0.21 -0.51 l0 -1.46 q0 -0.28 0.21 -0.49 t0.49 -0.21 l9.7 0 z M177.75050000000002 14.1 l3.02 4.62 q0.22 0.36 0.02 0.72 q-0.08 0.16 -0.25 0.26 t-0.35 0.1 l-1.82 0 q-0.18 0 -0.34 -0.09 t-0.24 -0.23 l-3.04 -4.82 l-3.56 0 l0 4.44 q0 0.28 -0.21 0.49 t-0.49 0.21 l-1.52 0 q-0.28 0 -0.49 -0.21 t-0.21 -0.49 l0 -6.58 q0 -0.28 0.21 -0.49 t0.49 -0.21 l6.16 0 q1.76 0 2.34 -1 q0.2 -0.32 0.2 -0.92 q0 -0.94 -0.62 -1.48 q-0.64 -0.58 -1.84 -0.58 l-6.24 0 q-0.28 0 -0.49 -0.21 t-0.21 -0.49 l0 -1.44 q0 -0.28 0.21 -0.49 t0.49 -0.21 l6.42 0 q2.34 0 3.74 1.32 q1.46 1.32 1.46 3.58 q0 1.46 -0.64 2.49 t-1.86 1.57 z M208.52225 16.96 q0.3 0 0.5 0.21 t0.2 0.51 l0 1.46 q0 0.28 -0.2 0.49 t-0.5 0.21 l-9.88 0 q-0.28 0 -0.49 -0.21 t-0.21 -0.49 l0 -1.46 q0 -0.3 0.21 -0.51 t0.49 -0.21 l9.88 0 z M198.64225000000002 13.86 q-0.28 0 -0.49 -0.21 t-0.21 -0.49 l0 -1.5 q0 -0.28 0.21 -0.49 t0.49 -0.21 l8.98 0 q0.3 0 0.51 0.21 t0.21 0.49 l0 1.5 q0 0.28 -0.21 0.49 t-0.51 0.21 l-8.98 0 z M208.52225 5 q0.3 0 0.5 0.21 t0.2 0.49 l0 1.46 q0 0.3 -0.2 0.51 t-0.5 0.21 l-9.88 0 q-0.28 0 -0.49 -0.21 t-0.21 -0.51 l0 -1.46 q0 -0.28 0.21 -0.49 t0.49 -0.21 l9.88 0 z M236.17400000000004 12.42 q0.86 0.54 1.31 1.32 t0.45 1.74 q0 2.26 -1.72 3.46 q-1.16 0.84 -3.14 1.06 l-0.08 0 q-0.28 0 -0.46 -0.18 q-0.24 -0.22 -0.24 -0.52 l0 -1.44 q0 -0.26 0.18 -0.46 t0.44 -0.24 q0.94 -0.1 1.46 -0.44 q0.4 -0.24 0.54 -0.62 q0.08 -0.22 0.08 -0.56 q0 -0.22 -0.08 -0.38 t-0.28 -0.3 q-0.58 -0.4 -1.5 -0.68 l-0.32 -0.1 q-1 -0.28 -1.84 -0.46 q-0.18 -0.04 -0.58 -0.14 l-0.22 -0.06 q-0.72 -0.18 -1.52 -0.5 q-1.18 -0.5 -1.94 -1.26 q-0.88 -0.88 -0.88 -2.32 q0 -1.98 1.52 -3.22 q1.04 -0.88 2.92 -1.12 q0.32 -0.04 0.55 0.18 t0.23 0.52 l0 1.44 q0 0.26 -0.16 0.46 t-0.41 0.23 t-0.51 0.11 q-0.58 0.22 -0.82 0.43 t-0.34 0.43 q-0.1 0.34 -0.1 0.64 q0 0.16 0.18 0.34 q0.28 0.28 0.82 0.5 q0.24 0.1 0.84 0.3 l2.5 0.62 l0.12 0.04 q0.94 0.26 1.36 0.4 q0.94 0.32 1.64 0.78 z M232.83400000000003 7.9 q-0.24 -0.06 -0.39 -0.25 t-0.15 -0.45 l0 -1.46 q0 -0.32 0.26 -0.54 q0.1 -0.1 0.26 -0.13 t0.3 -0.01 q1.76 0.28 2.86 1.2 q1.5 1.24 1.6 3.16 q0.02 0.28 -0.19 0.51 t-0.51 0.23 l-1.56 0 q-0.26 0 -0.46 -0.18 t-0.22 -0.44 q-0.08 -0.52 -0.34 -0.86 q-0.42 -0.5 -1.3 -0.76 q-0.06 0 -0.08 -0.02 l-0.08 0 z M230.49400000000003 17.08 q0.24 0.04 0.4 0.24 t0.16 0.44 l0 1.48 q0 0.32 -0.24 0.54 q-0.2 0.16 -0.46 0.16 l-0.1 0 q-1.86 -0.28 -3.06 -1.22 q-1.56 -1.24 -1.76 -3.46 q-0.04 -0.32 0.18 -0.55 t0.52 -0.23 l1.58 0 q0.28 0 0.48 0.19 t0.22 0.47 q0.06 1 0.98 1.54 q0.42 0.24 1.1 0.4 z M255.70575000000002 10.12 q-0.28 0 -0.49 -0.21 t-0.21 -0.49 l0 -3.72 q0 -0.28 0.21 -0.49 t0.49 -0.21 l1.52 0 q0.3 0 0.5 0.21 t0.2 0.49 l0 3.72 q0 0.28 -0.2 0.49 t-0.5 0.21 l-1.52 0 z M266.56575000000004 5 q0.28 0 0.49 0.21 t0.21 0.49 l0 13.44 q0 0.28 -0.21 0.49 t-0.49 0.21 l-1.52 0 q-0.3 0 -0.5 -0.21 t-0.2 -0.49 l0 -5.28 l-6.42 0 l0 5.28 q0 0.28 -0.2 0.49 t-0.5 0.21 l-1.52 0 q-0.28 0 -0.49 -0.21 t-0.21 -0.49 l0 -7.48 q0 -0.28 0.21 -0.49 t0.49 -0.21 l8.64 0 l0 -5.26 q0 -0.28 0.2 -0.49 t0.5 -0.21 l1.52 0 z"></path></g></svg>